<?xml version="1.0" encoding="UTF-8" standalone="no"?>
<!DOCTYPE svg PUBLIC "-//W3C//DTD SVG 1.1//EN" "http://www.w3.org/Graphics/SVG/1.1/DTD/svg11.dtd">
<svg width="100%" height="100%" viewBox="0 0 32 32" version="1.1" xmlns="http://www.w3.org/2000/svg" xmlns:xlink="http://www.w3.org/1999/xlink" xml:space="preserve" xmlns:serif="http://www.serif.com/" style="fill-rule:evenodd;clip-rule:evenodd;stroke-linejoin:round;stroke-miterlimit:2;">
    <g transform="matrix(1,0,0,1,16.4901,30.8555)">
        <text x="0px" y="0px" style="font-family:'Roboto-Black', 'Roboto';font-weight:900;font-size:16px;fill:rgb(51,51,51);">AI</text>
    </g>
    <path d="M17.856,23.139L19.369,19.015C19.383,18.975 19.4,18.936 19.418,18.899C19.172,18.334 18.768,17.841 18.243,17.488L21.044,9.553C21.138,9.561 21.232,9.565 21.326,9.565C23.121,9.565 24.599,8.088 24.599,6.293C24.599,5.425 24.253,4.593 23.641,3.979L23.645,3.979C23.031,3.366 22.198,3.02 21.33,3.02C20.463,3.02 19.629,3.366 19.016,3.979C18.81,4.185 18.633,4.418 18.489,4.671L15.602,3.884L15.602,3.839C15.602,2.043 14.125,0.566 12.329,0.566C11.462,0.566 10.628,0.911 10.015,1.525C9.009,2.533 8.77,4.086 9.426,5.351L5.955,8.475C4.662,7.62 2.93,7.794 1.832,8.889C1.214,9.504 0.865,10.34 0.865,11.212C0.865,13.008 2.342,14.484 4.138,14.484C4.897,14.484 5.633,14.221 6.219,13.738L13.377,18.99C13.224,19.376 13.144,19.789 13.144,20.204C13.144,21.999 14.622,23.477 16.417,23.477C16.932,23.477 17.421,23.355 17.856,23.139ZM17.575,21.361C17.268,21.668 16.851,21.841 16.418,21.841C15.52,21.841 14.781,21.102 14.781,20.204C14.781,19.77 14.954,19.353 15.261,19.047C15.567,18.74 15.984,18.567 16.418,18.567C17.315,18.567 18.054,19.306 18.054,20.204C18.054,20.638 17.881,21.054 17.575,21.361ZM16.7,16.945C15.852,16.871 15.008,17.131 14.348,17.67L7.189,12.417C7.54,11.532 7.49,10.537 7.052,9.691L10.525,6.567C11.06,6.922 11.69,7.111 12.333,7.111C13.506,7.111 14.592,6.48 15.175,5.461L18.057,6.25C18.041,7.354 18.585,8.394 19.501,9.011L16.7,16.945ZM2.986,12.361C2.679,12.055 2.506,11.638 2.506,11.204C2.506,10.769 2.679,10.353 2.986,10.046C3.293,9.74 3.709,9.567 4.142,9.567C5.04,9.567 5.778,10.306 5.778,11.204C5.778,12.101 5.04,12.84 4.142,12.84C3.709,12.84 3.293,12.667 2.986,12.361ZM22.484,7.45C22.175,7.785 21.74,7.975 21.284,7.975C20.386,7.975 19.648,7.236 19.648,6.339C19.648,5.882 19.839,5.446 20.173,5.137C20.48,4.83 20.897,4.658 21.331,4.658C22.228,4.658 22.967,5.396 22.967,6.294C22.967,6.728 22.795,7.145 22.488,7.452L22.484,7.45ZM11.168,2.682C11.474,2.375 11.891,2.203 12.324,2.203C13.222,2.203 13.96,2.942 13.96,3.839C13.96,4.737 13.222,5.476 12.324,5.476C11.891,5.476 11.474,5.303 11.168,4.997C10.862,4.69 10.69,4.275 10.69,3.841C10.69,3.406 10.863,2.988 11.172,2.682L11.168,2.682Z" style="fill:rgb(51,51,51);fill-rule:nonzero;"/>
    <g transform="matrix(0.382736,0,0,0.382736,6.20597,-2.32612)">
        <path d="M23,16C23,19.84 19.84,23 16,23C12.16,23 9,19.84 9,16C9,12.16 12.16,9 16,9C19.84,9 23,12.16 23,16Z" style="fill:rgb(51,51,51);fill-opacity:0.2;fill-rule:nonzero;"/>
    </g>
    <g transform="matrix(0.382736,0,0,0.382736,15.1475,0.35303)">
        <path d="M23,16C23,19.84 19.84,23 16,23C12.16,23 9,19.84 9,16C9,12.16 12.16,9 16,9C19.84,9 23,12.16 23,16Z" style="fill:rgb(51,51,51);fill-opacity:0.2;fill-rule:nonzero;"/>
    </g>
    <g transform="matrix(0.33785,0,0,0.361561,10.8216,14.251)">
        <path d="M23,16C23,19.84 19.84,23 16,23C12.16,23 9,19.84 9,16C9,12.16 12.16,9 16,9C19.84,9 23,12.16 23,16Z" style="fill:rgb(51,51,51);fill-opacity:0.2;fill-rule:nonzero;"/>
    </g>
    <g transform="matrix(0.33785,0,0,0.361561,-1.29512,5.39411)">
        <path d="M23,16C23,19.84 19.84,23 16,23C12.16,23 9,19.84 9,16C9,12.16 12.16,9 16,9C19.84,9 23,12.16 23,16Z" style="fill:rgb(51,51,51);fill-opacity:0.2;fill-rule:nonzero;"/>
    </g>
</svg>
