<?xml version="1.0" encoding="UTF-8" standalone="no"?>
<!DOCTYPE svg PUBLIC "-//W3C//DTD SVG 1.1//EN" "http://www.w3.org/Graphics/SVG/1.1/DTD/svg11.dtd">
<svg width="100%" height="100%" viewBox="0 0 32 32" version="1.1" xmlns="http://www.w3.org/2000/svg" xmlns:xlink="http://www.w3.org/1999/xlink" xml:space="preserve" xmlns:serif="http://www.serif.com/" style="fill-rule:evenodd;clip-rule:evenodd;stroke-linejoin:round;stroke-miterlimit:2;">
    <g transform="matrix(0.925938,0,0,0.925938,3.39534,-1.10118)">
        <!-- https://phosphoricons.com, MIT License, polygon.svg -->
        <path d="M28.83,6.17C28.08,5.42 27.062,4.998 26.001,4.998C24.941,4.998 23.922,5.42 23.173,6.17C22.921,6.422 22.704,6.706 22.528,7.015L19,6.053C19,6.034 19,6.016 19,5.998C19,3.803 17.195,1.998 15,1.998C13.94,1.998 12.921,2.42 12.171,3.17C10.942,4.402 10.649,6.301 11.451,7.846L7.209,11.665C5.628,10.62 3.511,10.833 2.17,12.171C1.414,12.922 0.988,13.945 0.988,15.01C0.988,17.205 2.793,19.01 4.988,19.01C5.916,19.01 6.815,18.688 7.531,18.097L16.281,24.517C16.093,24.989 15.996,25.493 15.996,26.001C15.996,28.195 17.802,30.001 19.996,30.001C22.19,30.001 23.996,28.195 23.996,26.001C23.996,24.67 23.332,23.424 22.228,22.681L25.651,12.982C25.766,12.992 25.881,12.997 25.996,12.997C28.19,12.997 29.996,11.192 29.996,8.998C29.996,7.937 29.574,6.92 28.825,6.17L28.83,6.17ZM13.58,4.584C13.955,4.209 14.464,3.999 14.993,3.999C16.091,3.999 16.993,4.902 16.993,5.999C16.993,7.096 16.091,7.999 14.993,7.999C14.464,7.999 13.955,7.788 13.58,7.414C13.206,7.039 12.996,6.531 12.996,6.001C12.996,5.469 13.208,4.959 13.585,4.584L13.58,4.584ZM3.58,16.415C3.205,16.04 2.993,15.531 2.993,15C2.993,14.469 3.205,13.96 3.58,13.585C3.955,13.211 4.464,13 4.993,13C6.091,13 6.993,13.903 6.993,15C6.993,16.097 6.091,17 4.993,17C4.464,17 3.955,16.789 3.58,16.415ZM21.411,27.415C21.036,27.79 20.527,28.001 19.997,28.001C18.9,28.001 17.997,27.098 17.997,26.001C17.997,25.47 18.208,24.961 18.583,24.586C18.957,24.211 19.467,24 19.997,24C21.094,24 21.997,24.903 21.997,26.001C21.997,26.531 21.786,27.04 21.411,27.415ZM20.342,22.017C19.306,21.927 18.274,22.245 17.467,22.903L8.717,16.483C9.146,15.401 9.085,14.185 8.55,13.151L12.794,9.333C13.449,9.767 14.218,9.998 15.004,9.998C16.438,9.998 17.766,9.227 18.478,7.981L22,8.945C21.981,10.295 22.646,11.566 23.765,12.32L20.342,22.017ZM27.412,10.412C27.034,10.821 26.502,11.054 25.945,11.054C24.847,11.054 23.945,10.151 23.945,9.054C23.945,8.496 24.178,7.963 24.587,7.585C24.962,7.21 25.472,6.999 26.002,6.999C27.099,6.999 28.002,7.902 28.002,8.999C28.002,9.53 27.791,10.039 27.416,10.414L27.412,10.412Z" style="fill-rule:nonzero;"/>
    </g>
    <g transform="matrix(1,0,0,1,-0.964803,7.75124)">
        <text x="1.585px" y="23.624px" style="font-family:'Roboto-Black', 'Roboto';font-weight:900;font-size:16px;">AI</text>
    </g>
</svg>
