<?xml version="1.0" encoding="UTF-8" standalone="no"?>
<!DOCTYPE svg PUBLIC "-//W3C//DTD SVG 1.1//EN" "http://www.w3.org/Graphics/SVG/1.1/DTD/svg11.dtd">
<svg width="100%" height="100%" viewBox="0 0 32 32" version="1.1" xmlns="http://www.w3.org/2000/svg" xmlns:xlink="http://www.w3.org/1999/xlink" xml:space="preserve" xmlns:serif="http://www.serif.com/" style="fill-rule:evenodd;clip-rule:evenodd;stroke-linejoin:round;stroke-miterlimit:2;">
    <g transform="matrix(0.665428,0,0,0.665428,0.54384,0.54384)">
        <path d="M23,16C23,19.84 19.84,23 16,23C12.16,23 9,19.84 9,16C9,12.16 12.16,9 16,9C19.84,9 23,12.16 23,16Z" style="fill:rgb(51,51,51);fill-opacity:0.2;fill-rule:nonzero;"/>
    </g>
    <g transform="matrix(0.665428,0,0,0.665428,0.54384,0.54384)">
        <path d="M15,5L15,2C15,1.451 15.451,1 16,1C16.549,1 17,1.451 17,2L17,5C17,5.549 16.549,6 16,6C15.451,6 15,5.549 15,5ZM24,16C24,20.389 20.389,24 16,24C11.611,24 8,20.389 8,16C8,11.611 11.611,8 16,8C20.387,8.005 23.995,11.613 24,16ZM22,16C22,12.708 19.292,10 16,10C12.708,10 10,12.708 10,16C10,19.292 12.708,22 16,22C19.29,21.997 21.997,19.29 22,16ZM7.293,8.708C7.48,8.895 7.735,9.001 8,9.001C8.549,9.001 9.001,8.549 9.001,8C9.001,7.735 8.895,7.48 8.708,7.293L6.707,5.293C6.52,5.105 6.265,4.999 6,4.999C5.451,4.999 4.999,5.451 4.999,6C4.999,6.265 5.105,6.52 5.293,6.707L7.293,8.708ZM7.293,23.293L5.293,25.293C5.105,25.48 4.999,25.735 4.999,26C4.999,26.549 5.451,27.001 6,27.001C6.265,27.001 6.52,26.895 6.708,26.708L8.708,24.708C8.895,24.52 9.001,24.265 9.001,24C9.001,23.451 8.549,22.999 8,22.999C7.735,22.999 7.48,23.105 7.292,23.293ZM24,9C24.265,9 24.52,8.895 24.707,8.708L26.708,6.707C26.895,6.52 27.001,6.265 27.001,6C27.001,5.451 26.549,4.999 26,4.999C25.735,4.999 25.48,5.105 25.293,5.292L23.293,7.292C23.105,7.48 22.999,7.735 22.999,8C22.999,8.549 23.451,9 23.999,9C23.999,9 24,9 24,9ZM24.708,23.293C24.52,23.105 24.265,22.999 24,22.999C23.451,22.999 22.999,23.451 22.999,24C22.999,24.265 23.105,24.52 23.293,24.707L25.293,26.708C25.48,26.895 25.735,27.001 26,27.001C26.549,27.001 27.001,26.549 27.001,26C27.001,25.735 26.895,25.48 26.708,25.293L24.708,23.293ZM6,16C6,15.451 5.549,15 5,15L2,15C1.451,15 1,15.451 1,16C1,16.549 1.451,17 2,17L5,17C5.549,17 6,16.549 6,16ZM16,26C15.451,26 15,26.451 15,27L15,30C15,30.549 15.451,31 16,31C16.549,31 17,30.549 17,30L17,27C17,26.451 16.549,26 16,26ZM30,15L27,15C26.451,15 26,15.451 26,16C26,16.549 26.451,17 27,17L30,17C30.549,17 31,16.549 31,16C31,15.451 30.549,15 30,15Z" style="fill:rgb(51,51,51);fill-rule:nonzero;"/>
    </g>
    <g transform="matrix(0.536362,0,0,0.536362,16.1785,15.8913)">
        <path d="M24.485,24.485C19.83,29.14 12.17,29.14 7.515,24.485L24.485,7.515C29.14,12.17 29.14,19.83 24.485,24.485Z" style="fill:rgb(51,51,51);fill-opacity:0.2;fill-rule:nonzero;"/>
    </g>
    <g transform="matrix(0.536362,0,0,0.536362,16.1785,15.8913)">
        <path d="M25.193,6.808C22.755,4.37 19.447,3 16,3C8.868,3 3,8.868 3,16C3,19.447 4.37,22.755 6.808,25.193C9.245,27.63 12.553,29 16,29C23.132,29 29,23.132 29,16C29,12.553 27.63,9.245 25.192,6.807ZM8.223,8.221C12.226,4.227 18.689,3.933 23.037,7.549L7.548,23.039C3.927,18.691 4.221,12.222 8.222,8.221ZM23.778,23.779C19.774,27.772 13.312,28.065 8.963,24.451L24.453,8.961C28.073,13.309 27.779,19.778 23.778,23.779Z" style="fill:rgb(51,51,51);fill-rule:nonzero;"/>
    </g>
</svg>
