<?xml version="1.0" encoding="UTF-8" standalone="no"?>
<!DOCTYPE svg PUBLIC "-//W3C//DTD SVG 1.1//EN" "http://www.w3.org/Graphics/SVG/1.1/DTD/svg11.dtd">
<svg width="100%" height="100%" viewBox="0 0 32 32" version="1.1" xmlns="http://www.w3.org/2000/svg" xmlns:xlink="http://www.w3.org/1999/xlink" xml:space="preserve" xmlns:serif="http://www.serif.com/" style="fill-rule:evenodd;clip-rule:evenodd;stroke-linejoin:round;stroke-miterlimit:2;">
    <g transform="matrix(1,0,0,1,-12.889,0.395101)">
        <path d="M31.615,4L31.615,10.787L38.518,10.787L38.518,27.392L19,27.392L19,4L31.615,4Z" style="fill:rgb(229,57,53);fill-opacity:0.2;fill-rule:nonzero;"/>
    </g>
    <path d="M26.708,10.293L19.708,3.293C19.52,3.105 19.265,3 19,3L7,3C5.903,3 5,3.903 5,5L5,27C5,28.097 5.903,29 7,29L25,29C26.097,29 27,28.097 27,27L27,11C27,10.735 26.895,10.48 26.707,10.293ZM20,6.414L23.586,10L20,10L20,6.414ZM25,27L7,27L7,5L18,5L18,11C18,11.549 18.451,12 19,12L25,12L25,27ZM19.708,16.708L17.414,19L19.708,21.293C19.895,21.48 20.001,21.735 20.001,22C20.001,22.549 19.549,23.001 19,23.001C18.735,23.001 18.48,22.895 18.293,22.708L16,20.414L13.708,22.708C13.52,22.895 13.265,23.001 13,23.001C12.451,23.001 11.999,22.549 11.999,22C11.999,21.735 12.105,21.48 12.293,21.293L14.586,19L12.293,16.708C12.105,16.52 11.999,16.265 11.999,16C11.999,15.451 12.451,14.999 13,14.999C13.265,14.999 13.52,15.105 13.708,15.292L16,17.586L18.293,15.293C18.48,15.105 18.735,14.999 19,14.999C19.549,14.999 20.001,15.451 20.001,16C20.001,16.265 19.895,16.52 19.708,16.707Z" style="fill:rgb(229,57,53);fill-rule:nonzero;"/>
</svg>
