<?xml version="1.0" encoding="UTF-8" standalone="no"?>
<!DOCTYPE svg PUBLIC "-//W3C//DTD SVG 1.1//EN" "http://www.w3.org/Graphics/SVG/1.1/DTD/svg11.dtd">
<svg width="100%" height="100%" viewBox="0 0 32 32" version="1.1" xmlns="http://www.w3.org/2000/svg" xmlns:xlink="http://www.w3.org/1999/xlink" xml:space="preserve" xmlns:serif="http://www.serif.com/" style="fill-rule:evenodd;clip-rule:evenodd;stroke-linejoin:round;stroke-miterlimit:2;">
    <path d="M28,7L28,25C28,25.549 27.549,26 27,26L5,26C4.451,26 4,25.549 4,25L4,7C4,6.451 4.451,6 5,6L27,6C27.549,6 28,6.451 28,7Z" style="fill:rgb(51,51,51);fill-opacity:0.2;fill-rule:nonzero;"/>
    <path d="M27,5L5,5C3.903,5 3,5.903 3,7L3,25C3,26.097 3.903,27 5,27L27,27C28.097,27 29,26.097 29,25L29,7C29,5.903 28.097,5 27,5ZM27,25L5,25L5,7L27,7L27,25Z" style="fill:rgb(51,51,51);fill-rule:nonzero;"/>
    <g transform="matrix(0.749484,0,0,0.749484,4.00826,4.00826)">
        <path d="M29.708,16.708L25.708,20.708C25.52,20.895 25.265,21.001 25,21.001C24.451,21.001 23.999,20.549 23.999,20C23.999,19.735 24.105,19.48 24.292,19.293L26.586,17L5.414,17L7.708,19.293C7.895,19.48 8.001,19.735 8.001,20C8.001,20.549 7.549,21.001 7,21.001C6.735,21.001 6.48,20.895 6.293,20.708L2.293,16.708C2.105,16.52 1.999,16.265 1.999,16C1.999,15.735 2.105,15.48 2.293,15.293L6.293,11.293C6.48,11.105 6.735,10.999 7,10.999C7.549,10.999 8.001,11.451 8.001,12C8.001,12.265 7.895,12.52 7.708,12.708L5.414,15L26.586,15L24.293,12.708C24.105,12.52 23.999,12.265 23.999,12C23.999,11.451 24.451,10.999 25,10.999C25.265,10.999 25.52,11.105 25.707,11.293L29.708,15.293C29.895,15.48 30.001,15.735 30.001,16C30.001,16.265 29.895,16.52 29.708,16.708Z" style="fill:rgb(51,51,51);fill-rule:nonzero;"/>
    </g>
</svg>
