<svg xmlns="http://www.w3.org/2000/svg" viewBox="0 0 256 256" width="32" height="32">
  <path d="M 79.423 18.272 L 219.738 50.642 C 224.043 51.636 226.728 55.931 225.735 60.236 L 186.17 231.731 C 185.177 236.036 180.882 238.722 176.577 237.728 L 36.262 205.358 C 31.957 204.364 29.272 200.069 30.265 195.764 L 69.83 24.269 C 70.823 19.964 75.118 17.278 79.423 18.272 Z" opacity="0.2"/>
  <path d="M 62.034 22.47 L 22.47 193.966 C 20.484 202.576 25.853 211.166 34.464 213.153 L 174.778 245.524 C 183.389 247.51 191.979 242.141 193.966 233.53 L 233.53 62.034 C 235.516 53.424 230.147 44.834 221.536 42.847 L 81.222 10.476 C 72.611 8.49 64.021 13.859 62.034 22.47 Z M 217.939 58.438 L 178.375 229.933 L 38.061 197.562 L 77.625 26.067 L 217.939 58.438 Z"/>
</svg>
