<svg xmlns="http://www.w3.org/2000/svg" width="32" height="32" fill="#333333" viewBox="0 0 256 256"><path d="M208,40H48a8,8,0,0,0-8,8V208a8,8,0,0,0,8,8h8.69L166.34,106.34a8,8,0,0,1,11.32,0L216,144.69V48A8,8,0,0,0,208,40ZM96,112a16,16,0,1,1,16-16A16,16,0,0,1,96,112Z" opacity="0.2"></path><path d="M208,32H48A16,16,0,0,0,32,48V208a16,16,0,0,0,16,16H208a16,16,0,0,0,16-16V48A16,16,0,0,0,208,32ZM48,48H208v77.38l-24.69-24.7a16,16,0,0,0-22.62,0L53.37,208H48ZM208,208H76l96-96,36,36v60ZM96,120A24,24,0,1,0,72,96,24,24,0,0,0,96,120Zm0-32a8,8,0,1,1-8,8A8,8,0,0,1,96,88Z"></path></svg>
