<svg xmlns="http://www.w3.org/2000/svg" width="32" height="32" fill="#333333" viewBox="0 0 256 256"><path d="M81,175A24,24,0,1,1,47,175,24,24,0,0,1,81,175ZM209,47A24,24,0,1,0,209,81,24,24,0,0,0,209,47Z" opacity="0.2"></path><path d="M214.64,41.36a32,32,0,0,0-50.2,38.89L80.25,164.44a32.06,32.06,0,0,0-38.89,4.94h0a32,32,0,1,0,50.2,6.37l84.19-84.19a32,32,0,0,0,38.89-50.2Zm-139.33,162a16,16,0,0,1-22.64-22.64h0a16,16,0,0,1,22.63,0h0A16,16,0,0,1,75.31,203.33Zm128-128a16,16,0,1,1,0-22.63A16,16,0,0,1,203.33,75.3Z"></path></svg>
